<svg t="1607246815408" class="icon" viewBox="0 0 1024 1024" version="1.1" xmlns="http://www.w3.org/2000/svg" p-id="1309" width="200" height="200"><path d="M874.666667 896h-725.333334c-11.757037 0-21.333333-9.576296-21.333333-21.333333v-570.785186c0-11.757037 9.576296-21.333333 21.333333-21.333333s21.333333 9.576296 21.333334 21.333333V853.333333h682.666666V303.881481c0-11.757037 9.576296-21.333333 21.333334-21.333333s21.333333 9.576296 21.333333 21.333333v570.785186c0 11.757037-9.576296 21.333333-21.333333 21.333333z" p-id="1310"></path><path d="M512.474074 810.666667c-3.982222 0-7.964444-1.137778-11.472593-3.318519-77.274074-49.208889-166.874074-59.259259-277.712592-59.259259-11.757037 0-21.333333-9.576296-21.333333-21.333333v-577.422223c0-11.757037 9.576296-21.333333 21.333333-21.333333 66.37037 0 115.863704 3.887407 160.521481 12.515556 53.191111 10.24 98.891852 27.685926 139.946667 53.38074 6.257778 3.887407 10.05037 10.714074 10.05037 18.10963v577.422222c0 7.774815-4.266667 14.980741-11.093333 18.678519-3.223704 1.706667-6.731852 2.56-10.24 2.56zM244.622222 705.517037c94.151111 1.232593 174.26963 11.188148 246.518519 47.217778V223.952593c-71.111111-41.054815-150.945185-51.863704-246.518519-53.191112v534.755556z" p-id="1311"></path><path d="M512.474074 810.666667c-3.508148 0-7.016296-0.853333-10.24-2.654815-6.826667-3.792593-11.093333-10.903704-11.093333-18.678519v-577.422222c0-7.395556 3.792593-14.222222 10.05037-18.10963 40.96-25.6 86.755556-43.045926 139.946667-53.38074 44.657778-8.628148 94.151111-12.515556 160.521481-12.515556 11.757037 0 21.333333 9.576296 21.333334 21.333334v577.422222c0 11.757037-9.576296 21.333333-21.333334 21.333333-110.838519 0-200.438519 10.05037-277.712592 59.259259a21.048889 21.048889 0 0 1-11.472593 3.413334zM533.807407 223.952593v528.782222c72.248889-36.124444 152.367407-45.985185 246.518519-47.217778v-534.755556c-95.573333 1.327407-175.407407 12.136296-246.518519 53.191112z" p-id="1312"></path></svg>