<?xml version="1.0" encoding="UTF-8"?>
<svg width="80px" height="80px" viewBox="0 0 80 80" version="1.1" xmlns="http://www.w3.org/2000/svg" xmlns:xlink="http://www.w3.org/1999/xlink">
    <!-- Generator: Sketch 63.1 (92452) - https://sketch.com -->
    <title>编组 8</title>
    <desc>Created with Sketch.</desc>
    <g id="页面-1" stroke="none" stroke-width="1" fill="none" fill-rule="evenodd">
        <g id="我的-头部极端情况展示" transform="translate(-77.000000, -388.000000)">
            <g id="编组-8" transform="translate(77.000000, 388.000000)">
                <path d="M40,80 C67.6142375,80 80,67.6142375 80,40 C80,12.3857625 67.6142375,0 40,0 C12.3857625,0 0,12.3857625 0,40 C0,67.6142375 12.3857625,80 40,80 Z" id="Mask" fill="#000000"></path>
                <g id="编组-5" transform="translate(21.000000, 20.000000)" stroke="#FFFFFF" stroke-width="3">
                    <g id="编组-3" stroke-linecap="round">
                        <path d="M2.81935484,11.4354567 L2.81935484,4.90322581 C2.81935484,2.19524897 5.01460381,0 7.72258065,0 L32.2387097,0 C34.9466865,0 37.1419355,2.19524897 37.1419355,4.90322581 L37.1419355,34.3225806 C37.1419355,37.0305575 34.9466865,39.2258065 32.2387097,39.2258065 L7.72258065,39.2258065 C5.01460381,39.2258065 2.81935484,37.0305575 2.81935484,34.3225806 L2.81935484,28.2150303" id="路径" transform="translate(19.980645, 19.612903) scale(1, -1) translate(-19.980645, -19.612903) "></path>
                        <line x1="1.11050953e-13" y1="12.2580645" x2="5.27096774" y2="12.2580645" id="路径-6"></line>
                        <line x1="1.11050953e-13" y1="19.6129032" x2="5.27096774" y2="19.6129032" id="路径-6备份"></line>
                        <line x1="1.11050953e-13" y1="26.9677419" x2="5.27096774" y2="26.9677419" id="路径-6备份"></line>
                    </g>
                    <g id="编组-4" transform="translate(11.761905, 9.952381)" fill-rule="nonzero">
                        <circle id="椭圆形" cx="8.14285714" cy="4.44155844" r="4.44155844"></circle>
                        <path d="M8.14285714,9.62337662 C12.640033,9.62337662 16.2857143,13.2690579 16.2857143,17.7662338 C16.2857143,18.0157383 16.2744927,18.2626219 16.2525266,18.5064074 L0.033187722,18.5064074 C0.01122163,18.2626219 0,18.0157383 0,17.7662338 C0,13.2690579 3.64568132,9.62337662 8.14285714,9.62337662 Z" id="形状结合"></path>
                    </g>
                </g>
            </g>
        </g>
    </g>
</svg>